<?xml version="1.0" encoding="UTF-8" standalone="no"?>
<!DOCTYPE svg PUBLIC "-//W3C//DTD SVG 1.1//EN" "http://www.w3.org/Graphics/SVG/1.1/DTD/svg11.dtd">
<svg width="100%" height="100%" viewBox="0 0 1000 1000" version="1.1" xmlns="http://www.w3.org/2000/svg" xmlns:xlink="http://www.w3.org/1999/xlink" xml:space="preserve" xmlns:serif="http://www.serif.com/" style="fill-rule:evenodd;clip-rule:evenodd;stroke-linejoin:round;stroke-miterlimit:2;">
    <g transform="matrix(1.09051,0,0,1.16279,-26.1723,-68.6047)">
        <path d="M941,229.823L941,748.177C941,842.457 859.384,919 758.855,919L206.145,919C105.616,919 24,842.457 24,748.177L24,229.823C24,135.543 105.616,59 206.145,59L758.855,59C859.384,59 941,135.543 941,229.823Z" style="fill:#4069ad;"/>
        <clipPath id="_clip1">
            <path d="M941,229.823L941,748.177C941,842.457 859.384,919 758.855,919L206.145,919C105.616,919 24,842.457 24,748.177L24,229.823C24,135.543 105.616,59 206.145,59L758.855,59C859.384,59 941,135.543 941,229.823Z"/>
        </clipPath>
        <g clip-path="url(#_clip1)">
            <g id="Rectangle" transform="matrix(1.20204,0,0,5.16462,27.6061,-82.8751)">
                <path d="M641,44.6C641,41.509 629.504,39 615.345,39L-3,39L-3,67L615.345,67C629.504,67 641,64.491 641,61.4L641,44.6Z"/>
            </g>
            <g id="Accent" transform="matrix(0.651574,0,0,5.16462,523.341,526.213)">
                <path d="M641,39L641,67L44.33,67C18.208,67 -3,64.491 -3,61.4L-3,44.6C-3,41.509 18.208,39 44.33,39L641,39Z" style="fill:#ff8c21;"/>
            </g>
        </g>
    </g>
    <g transform="matrix(1,0,0,1,192.25,197)">
        <g transform="matrix(500,0,0,500,-68.75,475)">
            <path d="M0.204,-0L0.295,-0.512L0.069,-0.512L0.1,-0.688L0.772,-0.688L0.741,-0.512L0.516,-0.512L0.425,-0L0.204,-0Z" style="fill:#fff;fill-rule:nonzero;"/>
        </g>
        <g transform="matrix(500,0,0,500,265.75,475)">
            <path d="M0.027,-0L0.149,-0.688L0.588,-0.688C0.631,-0.688 0.665,-0.681 0.692,-0.666C0.718,-0.651 0.737,-0.631 0.75,-0.608C0.762,-0.585 0.768,-0.56 0.768,-0.534C0.768,-0.507 0.762,-0.481 0.75,-0.456C0.738,-0.431 0.721,-0.41 0.7,-0.393C0.679,-0.376 0.653,-0.364 0.624,-0.359L0.623,-0.355C0.652,-0.346 0.677,-0.33 0.698,-0.307C0.718,-0.284 0.728,-0.253 0.728,-0.215C0.728,-0.17 0.718,-0.132 0.697,-0.1C0.676,-0.067 0.649,-0.043 0.614,-0.026C0.579,-0.009 0.539,-0 0.496,-0L0.027,-0ZM0.277,-0.16L0.447,-0.16C0.46,-0.16 0.472,-0.163 0.481,-0.17C0.49,-0.177 0.496,-0.186 0.501,-0.197C0.506,-0.208 0.508,-0.219 0.508,-0.232C0.508,-0.245 0.504,-0.256 0.497,-0.265C0.489,-0.274 0.476,-0.278 0.459,-0.278L0.297,-0.278L0.277,-0.16ZM0.322,-0.42L0.474,-0.42C0.485,-0.42 0.495,-0.422 0.503,-0.426C0.511,-0.429 0.518,-0.434 0.523,-0.441C0.528,-0.448 0.531,-0.455 0.534,-0.464C0.536,-0.472 0.537,-0.48 0.537,-0.489C0.537,-0.502 0.534,-0.513 0.527,-0.523C0.52,-0.532 0.508,-0.537 0.493,-0.537L0.343,-0.537L0.322,-0.42Z" style="fill:#fff;fill-rule:nonzero;"/>
        </g>
    </g>
</svg>
