<?xml version="1.0" encoding="UTF-8" standalone="no"?>
<!DOCTYPE svg PUBLIC "-//W3C//DTD SVG 1.1//EN" "http://www.w3.org/Graphics/SVG/1.1/DTD/svg11.dtd">
<svg width="100%" height="100%" viewBox="0 0 1920 411" version="1.1" xmlns="http://www.w3.org/2000/svg" xmlns:xlink="http://www.w3.org/1999/xlink" xml:space="preserve" xmlns:serif="http://www.serif.com/" style="fill-rule:evenodd;clip-rule:evenodd;stroke-linecap:round;stroke-linejoin:round;stroke-miterlimit:1.5;">
    <g id="White">
        <g id="Text-White" serif:id="Text White" transform="matrix(1,0,0,1,-57.2,-29.22)">
            <g transform="matrix(120,0,0,120,155,276)">
                <path d="M0.249,-0L0.249,-0.512L0.023,-0.512L0.023,-0.688L0.695,-0.688L0.695,-0.512L0.47,-0.512L0.47,-0L0.249,-0Z" style="fill:#fff;fill-rule:nonzero;"/>
            </g>
            <g transform="matrix(120,0,0,120,236.48,276)">
                <path d="M0.074,-0L0.074,-0.688L0.295,-0.688L0.295,-0.437L0.538,-0.437L0.538,-0.688L0.759,-0.688L0.759,-0L0.538,-0L0.538,-0.261L0.295,-0.261L0.295,-0L0.074,-0Z" style="fill:#fff;fill-rule:nonzero;"/>
            </g>
            <g transform="matrix(120,0,0,120,331.52,276)">
                <path d="M0.01,-0L0.261,-0.688L0.518,-0.688L0.769,-0L0.535,-0L0.506,-0.097L0.265,-0.097L0.236,-0L0.01,-0ZM0.311,-0.251L0.461,-0.251L0.428,-0.361C0.425,-0.369 0.422,-0.379 0.419,-0.39C0.416,-0.401 0.412,-0.413 0.409,-0.426C0.406,-0.439 0.402,-0.451 0.399,-0.464C0.396,-0.476 0.393,-0.487 0.39,-0.496L0.382,-0.496C0.379,-0.484 0.376,-0.47 0.372,-0.455C0.367,-0.44 0.363,-0.424 0.358,-0.408C0.353,-0.391 0.349,-0.376 0.344,-0.361L0.311,-0.251Z" style="fill:#fff;fill-rule:nonzero;"/>
            </g>
            <g transform="matrix(120,0,0,120,423.8,276)">
                <path d="M0.402,0.012C0.324,0.012 0.259,-0.001 0.206,-0.028C0.153,-0.055 0.113,-0.094 0.086,-0.148C0.058,-0.201 0.045,-0.266 0.045,-0.344C0.045,-0.461 0.075,-0.55 0.136,-0.61C0.196,-0.67 0.285,-0.7 0.402,-0.7C0.469,-0.7 0.527,-0.689 0.577,-0.667C0.626,-0.644 0.665,-0.611 0.692,-0.567C0.719,-0.523 0.733,-0.469 0.733,-0.405L0.522,-0.405C0.522,-0.432 0.517,-0.455 0.508,-0.474C0.499,-0.493 0.485,-0.508 0.468,-0.519C0.45,-0.53 0.428,-0.535 0.401,-0.535C0.37,-0.535 0.345,-0.528 0.326,-0.515C0.307,-0.502 0.293,-0.483 0.284,-0.459C0.275,-0.435 0.271,-0.407 0.271,-0.376L0.271,-0.312C0.271,-0.281 0.276,-0.253 0.285,-0.229C0.294,-0.205 0.307,-0.186 0.326,-0.173C0.345,-0.16 0.369,-0.153 0.399,-0.153C0.428,-0.153 0.452,-0.158 0.472,-0.168C0.491,-0.178 0.505,-0.193 0.515,-0.212C0.524,-0.231 0.529,-0.253 0.529,-0.279L0.733,-0.279C0.733,-0.216 0.72,-0.163 0.694,-0.12C0.668,-0.077 0.63,-0.044 0.581,-0.022C0.532,0.001 0.472,0.012 0.402,0.012Z" style="fill:#fff;fill-rule:nonzero;"/>
            </g>
            <g transform="matrix(120,0,0,120,517.52,276)">
                <path d="M0.074,-0L0.074,-0.688L0.295,-0.688L0.295,-0.394L0.54,-0.688L0.814,-0.688L0.567,-0.405L0.819,-0L0.558,-0L0.412,-0.257L0.295,-0.144L0.295,-0L0.074,-0Z" style="fill:#fff;fill-rule:nonzero;"/>
            </g>
            <g transform="matrix(120,0,0,120,608.12,276)">
                <path d="M0.077,-0L0.077,-0.688L0.672,-0.688L0.672,-0.523L0.298,-0.523L0.298,-0.428L0.618,-0.428L0.618,-0.27L0.298,-0.27L0.298,-0.165L0.679,-0.165L0.679,-0L0.077,-0Z" style="fill:#fff;fill-rule:nonzero;"/>
            </g>
            <g transform="matrix(120,0,0,120,695.96,276)">
                <path d="M0.074,-0L0.074,-0.688L0.505,-0.688C0.556,-0.688 0.599,-0.678 0.634,-0.657C0.668,-0.636 0.694,-0.609 0.711,-0.576C0.728,-0.543 0.737,-0.507 0.737,-0.468C0.737,-0.424 0.727,-0.385 0.706,-0.351C0.685,-0.316 0.657,-0.289 0.622,-0.268L0.757,-0L0.509,-0L0.404,-0.231L0.295,-0.231L0.295,-0L0.074,-0ZM0.295,-0.384L0.45,-0.384C0.467,-0.384 0.482,-0.391 0.494,-0.405C0.506,-0.418 0.512,-0.436 0.512,-0.459C0.512,-0.473 0.509,-0.485 0.504,-0.496C0.499,-0.507 0.491,-0.515 0.482,-0.522C0.473,-0.528 0.462,-0.531 0.45,-0.531L0.295,-0.531L0.295,-0.384Z" style="fill:#fff;fill-rule:nonzero;"/>
            </g>
            <g transform="matrix(120,0,0,120,820.4,276)">
                <path d="M0.074,-0L0.074,-0.688L0.532,-0.688C0.567,-0.688 0.598,-0.681 0.627,-0.667C0.656,-0.652 0.679,-0.632 0.696,-0.607C0.713,-0.582 0.722,-0.552 0.722,-0.519C0.722,-0.486 0.717,-0.458 0.706,-0.437C0.695,-0.416 0.681,-0.399 0.664,-0.387C0.647,-0.374 0.628,-0.365 0.607,-0.359L0.607,-0.355C0.631,-0.35 0.653,-0.341 0.673,-0.328C0.692,-0.315 0.708,-0.296 0.72,-0.273C0.732,-0.25 0.738,-0.22 0.738,-0.183C0.738,-0.146 0.729,-0.114 0.711,-0.087C0.693,-0.06 0.669,-0.038 0.639,-0.023C0.609,-0.008 0.575,-0 0.538,-0L0.074,-0ZM0.295,-0.16L0.463,-0.16C0.478,-0.16 0.491,-0.165 0.5,-0.176C0.509,-0.187 0.514,-0.203 0.514,-0.224C0.514,-0.234 0.512,-0.243 0.508,-0.252C0.503,-0.26 0.497,-0.266 0.49,-0.271C0.482,-0.276 0.473,-0.278 0.463,-0.278L0.295,-0.278L0.295,-0.16ZM0.295,-0.42L0.447,-0.42C0.458,-0.42 0.467,-0.423 0.474,-0.428C0.481,-0.432 0.487,-0.44 0.492,-0.449C0.496,-0.458 0.498,-0.47 0.498,-0.484C0.498,-0.499 0.493,-0.511 0.483,-0.522C0.473,-0.532 0.461,-0.537 0.447,-0.537L0.295,-0.537L0.295,-0.42Z" style="fill:#fff;fill-rule:nonzero;"/>
            </g>
            <g transform="matrix(120,0,0,120,912.32,276)">
                <path d="M0.074,-0L0.074,-0.688L0.505,-0.688C0.556,-0.688 0.599,-0.678 0.634,-0.657C0.668,-0.636 0.694,-0.609 0.711,-0.576C0.728,-0.543 0.737,-0.507 0.737,-0.468C0.737,-0.424 0.727,-0.385 0.706,-0.351C0.685,-0.316 0.657,-0.289 0.622,-0.268L0.757,-0L0.509,-0L0.404,-0.231L0.295,-0.231L0.295,-0L0.074,-0ZM0.295,-0.384L0.45,-0.384C0.467,-0.384 0.482,-0.391 0.494,-0.405C0.506,-0.418 0.512,-0.436 0.512,-0.459C0.512,-0.473 0.509,-0.485 0.504,-0.496C0.499,-0.507 0.491,-0.515 0.482,-0.522C0.473,-0.528 0.462,-0.531 0.45,-0.531L0.295,-0.531L0.295,-0.384Z" style="fill:#fff;fill-rule:nonzero;"/>
            </g>
            <g transform="matrix(120,0,0,120,1005.56,276)">
                <path d="M0.416,0.012C0.338,0.012 0.271,-0.001 0.216,-0.028C0.161,-0.055 0.118,-0.094 0.089,-0.148C0.06,-0.201 0.045,-0.266 0.045,-0.344C0.045,-0.423 0.06,-0.488 0.089,-0.541C0.118,-0.594 0.161,-0.633 0.216,-0.66C0.271,-0.687 0.338,-0.7 0.416,-0.7C0.495,-0.7 0.562,-0.687 0.617,-0.66C0.672,-0.633 0.715,-0.594 0.744,-0.541C0.773,-0.488 0.788,-0.423 0.788,-0.344C0.788,-0.266 0.773,-0.201 0.744,-0.148C0.715,-0.094 0.672,-0.055 0.617,-0.028C0.562,-0.001 0.495,0.012 0.416,0.012ZM0.416,-0.153C0.44,-0.153 0.461,-0.157 0.48,-0.165C0.498,-0.172 0.513,-0.183 0.526,-0.197C0.538,-0.211 0.547,-0.228 0.553,-0.248C0.559,-0.267 0.562,-0.289 0.562,-0.312L0.562,-0.376C0.562,-0.399 0.559,-0.421 0.553,-0.441C0.547,-0.46 0.538,-0.477 0.526,-0.491C0.513,-0.505 0.498,-0.516 0.48,-0.524C0.461,-0.531 0.44,-0.535 0.416,-0.535C0.392,-0.535 0.371,-0.531 0.353,-0.524C0.334,-0.516 0.319,-0.505 0.307,-0.491C0.295,-0.477 0.286,-0.46 0.28,-0.441C0.274,-0.421 0.271,-0.399 0.271,-0.376L0.271,-0.312C0.271,-0.289 0.274,-0.267 0.28,-0.248C0.286,-0.228 0.295,-0.211 0.307,-0.197C0.319,-0.183 0.334,-0.172 0.353,-0.165C0.371,-0.157 0.392,-0.153 0.416,-0.153Z" style="fill:#fff;fill-rule:nonzero;"/>
            </g>
            <g transform="matrix(120,0,0,120,1106.6,276)">
                <path d="M0.01,-0L0.261,-0.688L0.518,-0.688L0.769,-0L0.535,-0L0.506,-0.097L0.265,-0.097L0.236,-0L0.01,-0ZM0.311,-0.251L0.461,-0.251L0.428,-0.361C0.425,-0.369 0.422,-0.379 0.419,-0.39C0.416,-0.401 0.412,-0.413 0.409,-0.426C0.406,-0.439 0.402,-0.451 0.399,-0.464C0.396,-0.476 0.393,-0.487 0.39,-0.496L0.382,-0.496C0.379,-0.484 0.376,-0.47 0.372,-0.455C0.367,-0.44 0.363,-0.424 0.358,-0.408C0.353,-0.391 0.349,-0.376 0.344,-0.361L0.311,-0.251Z" style="fill:#fff;fill-rule:nonzero;"/>
            </g>
            <g transform="matrix(120,0,0,120,1198.88,276)">
                <path d="M0.074,-0L0.074,-0.688L0.372,-0.688C0.451,-0.688 0.517,-0.676 0.57,-0.651C0.623,-0.626 0.664,-0.589 0.692,-0.538C0.719,-0.487 0.733,-0.423 0.733,-0.344C0.733,-0.266 0.719,-0.202 0.692,-0.151C0.664,-0.099 0.623,-0.062 0.57,-0.037C0.517,-0.012 0.451,-0 0.372,-0L0.074,-0ZM0.295,-0.165L0.368,-0.165C0.392,-0.165 0.413,-0.168 0.431,-0.175C0.448,-0.182 0.463,-0.191 0.474,-0.204C0.485,-0.217 0.494,-0.232 0.499,-0.251C0.504,-0.27 0.507,-0.291 0.507,-0.314L0.507,-0.374C0.507,-0.397 0.504,-0.418 0.499,-0.437C0.494,-0.456 0.485,-0.471 0.474,-0.484C0.463,-0.497 0.448,-0.506 0.431,-0.513C0.413,-0.52 0.392,-0.523 0.368,-0.523L0.295,-0.523L0.295,-0.165Z" style="fill:#fff;fill-rule:nonzero;"/>
            </g>
            <g transform="matrix(120,0,0,120,1293.44,276)">
                <path d="M0.402,0.012C0.324,0.012 0.259,-0.001 0.206,-0.028C0.153,-0.055 0.113,-0.094 0.086,-0.148C0.058,-0.201 0.045,-0.266 0.045,-0.344C0.045,-0.461 0.075,-0.55 0.136,-0.61C0.196,-0.67 0.285,-0.7 0.402,-0.7C0.469,-0.7 0.527,-0.689 0.577,-0.667C0.626,-0.644 0.665,-0.611 0.692,-0.567C0.719,-0.523 0.733,-0.469 0.733,-0.405L0.522,-0.405C0.522,-0.432 0.517,-0.455 0.508,-0.474C0.499,-0.493 0.485,-0.508 0.468,-0.519C0.45,-0.53 0.428,-0.535 0.401,-0.535C0.37,-0.535 0.345,-0.528 0.326,-0.515C0.307,-0.502 0.293,-0.483 0.284,-0.459C0.275,-0.435 0.271,-0.407 0.271,-0.376L0.271,-0.312C0.271,-0.281 0.276,-0.253 0.285,-0.229C0.294,-0.205 0.307,-0.186 0.326,-0.173C0.345,-0.16 0.369,-0.153 0.399,-0.153C0.428,-0.153 0.452,-0.158 0.472,-0.168C0.491,-0.178 0.505,-0.193 0.515,-0.212C0.524,-0.231 0.529,-0.253 0.529,-0.279L0.733,-0.279C0.733,-0.216 0.72,-0.163 0.694,-0.12C0.668,-0.077 0.63,-0.044 0.581,-0.022C0.532,0.001 0.472,0.012 0.402,0.012Z" style="fill:#fff;fill-rule:nonzero;"/>
            </g>
            <g transform="matrix(120,0,0,120,1387.16,276)">
                <path d="M0.01,-0L0.261,-0.688L0.518,-0.688L0.769,-0L0.535,-0L0.506,-0.097L0.265,-0.097L0.236,-0L0.01,-0ZM0.311,-0.251L0.461,-0.251L0.428,-0.361C0.425,-0.369 0.422,-0.379 0.419,-0.39C0.416,-0.401 0.412,-0.413 0.409,-0.426C0.406,-0.439 0.402,-0.451 0.399,-0.464C0.396,-0.476 0.393,-0.487 0.39,-0.496L0.382,-0.496C0.379,-0.484 0.376,-0.47 0.372,-0.455C0.367,-0.44 0.363,-0.424 0.358,-0.408C0.353,-0.391 0.349,-0.376 0.344,-0.361L0.311,-0.251Z" style="fill:#fff;fill-rule:nonzero;"/>
            </g>
            <g transform="matrix(120,0,0,120,1479.44,276)">
                <path d="M0.383,0.012C0.336,0.012 0.292,0.009 0.251,0.002C0.21,-0.006 0.173,-0.018 0.143,-0.035C0.112,-0.051 0.087,-0.075 0.07,-0.106C0.052,-0.136 0.043,-0.174 0.043,-0.22L0.043,-0.226C0.043,-0.228 0.043,-0.23 0.044,-0.233L0.253,-0.233C0.252,-0.23 0.252,-0.228 0.252,-0.226L0.252,-0.219C0.252,-0.199 0.257,-0.184 0.266,-0.173C0.275,-0.162 0.289,-0.155 0.306,-0.152C0.323,-0.148 0.342,-0.146 0.363,-0.146C0.371,-0.146 0.38,-0.146 0.389,-0.147C0.398,-0.147 0.406,-0.148 0.415,-0.15C0.423,-0.151 0.431,-0.154 0.438,-0.157C0.444,-0.16 0.45,-0.165 0.454,-0.171C0.458,-0.176 0.46,-0.183 0.46,-0.192C0.46,-0.205 0.454,-0.215 0.443,-0.222C0.432,-0.229 0.416,-0.236 0.397,-0.241C0.378,-0.246 0.356,-0.251 0.332,-0.256C0.308,-0.261 0.283,-0.266 0.257,-0.273C0.231,-0.279 0.206,-0.287 0.182,-0.297C0.158,-0.307 0.136,-0.32 0.117,-0.336C0.098,-0.351 0.082,-0.371 0.071,-0.395C0.06,-0.418 0.054,-0.447 0.054,-0.48C0.054,-0.52 0.062,-0.554 0.079,-0.582C0.096,-0.61 0.119,-0.633 0.148,-0.65C0.177,-0.667 0.21,-0.68 0.247,-0.688C0.284,-0.696 0.322,-0.7 0.363,-0.7C0.404,-0.7 0.443,-0.696 0.48,-0.688C0.516,-0.679 0.548,-0.666 0.576,-0.649C0.604,-0.632 0.626,-0.61 0.642,-0.583C0.658,-0.556 0.666,-0.525 0.667,-0.488L0.667,-0.476L0.46,-0.476L0.46,-0.48C0.46,-0.492 0.457,-0.503 0.451,-0.514C0.445,-0.525 0.436,-0.533 0.423,-0.54C0.409,-0.547 0.392,-0.55 0.371,-0.55C0.351,-0.55 0.334,-0.548 0.321,-0.544C0.307,-0.54 0.297,-0.535 0.29,-0.528C0.283,-0.521 0.28,-0.513 0.28,-0.505C0.28,-0.492 0.286,-0.482 0.297,-0.474C0.308,-0.466 0.324,-0.459 0.343,-0.454C0.362,-0.449 0.384,-0.444 0.408,-0.439C0.432,-0.434 0.457,-0.429 0.483,-0.424C0.509,-0.418 0.534,-0.41 0.558,-0.401C0.582,-0.392 0.604,-0.38 0.623,-0.365C0.642,-0.349 0.658,-0.331 0.669,-0.309C0.68,-0.287 0.686,-0.26 0.686,-0.228C0.686,-0.171 0.673,-0.125 0.647,-0.09C0.62,-0.055 0.584,-0.029 0.539,-0.013C0.493,0.004 0.441,0.012 0.383,0.012Z" style="fill:#fff;fill-rule:nonzero;"/>
            </g>
            <g transform="matrix(120,0,0,120,1566.68,276)">
                <path d="M0.249,-0L0.249,-0.512L0.023,-0.512L0.023,-0.688L0.695,-0.688L0.695,-0.512L0.47,-0.512L0.47,-0L0.249,-0Z" style="fill:#fff;fill-rule:nonzero;"/>
            </g>
            <g transform="matrix(120,0,0,120,1648.16,276)">
                <rect x="0.074" y="-0.688" width="0.221" height="0.688" style="fill:#fff;fill-rule:nonzero;"/>
            </g>
            <g transform="matrix(120,0,0,120,1689.2,276)">
                <path d="M0.074,-0L0.074,-0.688L0.262,-0.688L0.476,-0.441C0.482,-0.434 0.49,-0.425 0.5,-0.412C0.51,-0.399 0.52,-0.387 0.531,-0.374C0.541,-0.361 0.549,-0.35 0.554,-0.342L0.559,-0.344C0.558,-0.363 0.558,-0.381 0.558,-0.4L0.558,-0.688L0.759,-0.688L0.759,-0L0.572,-0L0.331,-0.275C0.32,-0.288 0.31,-0.301 0.302,-0.312C0.294,-0.323 0.286,-0.333 0.279,-0.343L0.274,-0.341C0.275,-0.328 0.275,-0.316 0.275,-0.303L0.275,-0L0.074,-0Z" style="fill:#fff;fill-rule:nonzero;"/>
            </g>
            <g transform="matrix(120,0,0,120,1784.24,276)">
                <path d="M0.388,0.012C0.273,0.012 0.188,-0.018 0.131,-0.078C0.074,-0.138 0.045,-0.227 0.045,-0.344C0.045,-0.423 0.06,-0.488 0.089,-0.541C0.118,-0.594 0.161,-0.633 0.217,-0.66C0.273,-0.687 0.341,-0.7 0.42,-0.7C0.468,-0.7 0.513,-0.695 0.556,-0.684C0.598,-0.673 0.635,-0.656 0.668,-0.635C0.7,-0.613 0.725,-0.586 0.743,-0.553C0.761,-0.52 0.77,-0.482 0.77,-0.439L0.559,-0.439C0.559,-0.454 0.556,-0.467 0.549,-0.479C0.542,-0.491 0.532,-0.501 0.52,-0.51C0.508,-0.518 0.494,-0.524 0.479,-0.529C0.463,-0.533 0.446,-0.535 0.429,-0.535C0.403,-0.535 0.38,-0.532 0.36,-0.525C0.34,-0.518 0.324,-0.507 0.311,-0.493C0.298,-0.479 0.288,-0.462 0.281,-0.443C0.274,-0.424 0.271,-0.401 0.271,-0.376L0.271,-0.312C0.271,-0.279 0.277,-0.25 0.289,-0.227C0.3,-0.203 0.318,-0.185 0.342,-0.172C0.365,-0.159 0.394,-0.153 0.429,-0.153C0.452,-0.153 0.474,-0.157 0.494,-0.164C0.513,-0.171 0.529,-0.181 0.541,-0.194C0.553,-0.207 0.559,-0.223 0.559,-0.24L0.559,-0.244L0.403,-0.244L0.403,-0.384L0.77,-0.384L0.77,-0L0.656,-0L0.634,-0.068C0.613,-0.051 0.591,-0.036 0.566,-0.024C0.541,-0.012 0.514,-0.003 0.485,0.003C0.456,0.009 0.423,0.012 0.388,0.012Z" style="fill:#fff;fill-rule:nonzero;"/>
            </g>
        </g>
        <g id="White-Rectangle" serif:id="White Rectangle" transform="matrix(1.45342,0,0,1,0.360248,0)">
            <rect x="-3" y="39" width="644" height="28" style="fill:#fff;"/>
        </g>
    </g>
    <g id="Accent" transform="matrix(0.720497,0,0,1,1463.16,315)">
        <rect x="-3" y="39" width="644" height="28" style="fill:#ff8c21;stroke:#ff8c21;stroke-width:1.15px;"/>
    </g>
</svg>
